<svg width="17" height="20" viewBox="0 0 17 20" fill="none" xmlns="http://www.w3.org/2000/svg">
<path fill-rule="evenodd" clip-rule="evenodd" d="M7.82225 13.094C7.32478 12.7843 5.22562 11.4827 5.22562 11.4827C5.22562 11.4827 3.12743 10.1791 2.62927 9.87068C2.58169 9.84122 2.52089 9.87446 2.51825 9.93098C2.51276 10.0491 2.50464 10.222 2.50023 10.3185C2.49817 10.3654 2.50992 10.4113 2.5345 10.451C2.64425 10.6285 2.96765 11.1515 3.13057 11.4153C3.19195 11.5148 3.21026 11.6355 3.18119 11.7491L2.76008 13.3956C2.74324 13.4617 2.76625 13.5313 2.81892 13.5738C3.03599 13.7488 3.30426 13.9414 3.62775 14.1421C3.95104 14.3429 4.24222 14.4976 4.49453 14.6138C4.55572 14.642 4.6272 14.631 4.67723 14.5857L5.92605 13.453C6.01231 13.3747 6.12628 13.3361 6.24142 13.3463C6.5466 13.3731 7.15168 13.4265 7.35738 13.4447C7.4035 13.4488 7.44932 13.4384 7.48936 13.4151C7.5719 13.367 7.71945 13.2808 7.8202 13.222C7.86846 13.1938 7.86974 13.1236 7.82225 13.094Z" fill="#6633CC"/>
<path fill-rule="evenodd" clip-rule="evenodd" d="M4.29233 15.1767C4.27076 15.0447 4.18734 14.9311 4.06844 14.8715C3.73535 14.7043 3.47048 14.5444 3.39804 14.4999C3.3256 14.4554 3.06328 14.2911 2.76342 14.0691C2.65648 13.9898 2.51797 13.967 2.39151 14.008L2.31917 14.0314C1.81679 14.1942 1.42969 14.6005 1.28932 15.1127C0.945246 16.3684 0.297493 18.7325 0.00625918 19.7953C-0.036578 19.9515 0.150259 20.0663 0.268576 19.9567C1.07464 19.2104 2.86753 17.5503 3.81965 16.6686C4.20812 16.3089 4.39026 15.7766 4.30458 15.2523L4.29233 15.1767Z" fill="#6633CC"/>
<path fill-rule="evenodd" clip-rule="evenodd" d="M16.5837 0.880804C16.7361 0.6765 16.6447 0.521757 16.5766 0.45839C16.5048 0.40138 16.4172 0.360558 16.3167 0.345164L14.1077 0.00637839C13.9028 -0.0250072 13.6976 0.0610051 13.5747 0.229752L12.3693 1.88316C12.1839 2.13742 12.2474 2.47253 12.4633 2.6527C12.479 2.66601 12.4833 2.68925 12.4724 2.70742C12.4633 2.72242 12.4459 2.72967 12.4297 2.72719L10.9845 2.5055C10.7514 2.46985 10.5181 2.56748 10.3782 2.75947L6.85486 7.59274C6.80902 7.65561 6.72343 7.6728 6.65737 7.63247L3.26562 5.55973C3.04133 5.42267 2.74862 5.49895 2.61817 5.73077C2.49106 5.95662 2.58136 6.24575 2.80114 6.38013L2.88879 6.43366C2.93218 6.46008 2.95554 6.51034 2.94798 6.56109L2.84501 7.25177C2.8352 7.31812 2.76187 7.35288 2.70524 7.31822C2.70524 7.31822 2.22142 7.02721 2.20905 7.01956C1.80788 6.77106 1.28352 6.89869 1.03793 7.30461C0.819231 7.66614 0.895892 8.1259 1.19842 8.39784C1.20774 8.40638 1.29549 8.47472 1.31817 8.48872C1.31866 8.48902 1.31915 8.48942 1.31964 8.48962L3.85359 10.0594C5.22318 10.8964 6.26424 10.2101 6.58925 9.96394C6.87773 9.74544 7.20548 9.50418 7.75222 9.84009C7.94814 9.96057 8.1955 9.9561 8.3928 9.8378L9.02356 9.45969C9.20967 9.34815 9.44142 9.34914 9.62674 9.46227L11.548 10.6364C11.6235 10.6825 11.7212 10.663 11.7737 10.5912L16.4696 4.1593C16.8526 3.64243 16.5692 3.39105 16.3358 3.32927C16.3208 3.3258 16.3062 3.32153 16.2907 3.31914L15.1644 3.14652C15.1478 3.14384 15.1311 3.13669 15.1158 3.12725C15.0534 3.08872 15.0338 3.00588 15.072 2.94262C15.4537 2.42088 16.5837 0.880804 16.5837 0.880804Z" fill="#6633CC"/>
</svg>
